#!OML:ASF H:\LiuWeirdWalks\Patient Classification 1\Patient 1\Session 1\male.ASF
:FULLY-SPECIFIED
:DEGREES
659
root 0.200757 17.9729 38.9903 1.10922 -0.473325 -8.22879
lowerback 8.6054 0.0532873 6.29492
upperback -1.19445 0.992356 4.1003
thorax -6.07297 0.346752 0.62995
lowerneck -25.1367 1.52243 7.07489
upperneck 23.1504 1.15797 -6.19172
head 11.8327 0.320156 -3.30962
rclavicle -9.93923e-015 -3.73715e-014
rhumerus -43.4242 -2.85976 -76.088
rradius 35.6865
rwrist -8.58863
rhand -18.6742 -2.98804
rfingers 7.12502
rthumb 7.61963 -32.8308
lclavicle -9.93923e-015 -3.73715e-014
lhumerus -36.8188 -4.29483 84.1018
lradius 47.8053
lwrist 7.84625
lhand -16.3752 -7.83934
lfingers 7.12502
lthumb 9.83817 21.9108
rfemur -27.5043 -9.588 25.7636
rtibia 69.7341
rfoot -12.9749 -12.9753
rtoes -10.4029
lfemur -11.8035 -1.86088 -17.3913
ltibia 30.82
lfoot -7.81562 16.9315
ltoes 5.08139
660
root 0.191598 17.9756 39.0053 1.26407 -0.541763 -8.18837
lowerback 8.53469 0.0824206 6.33361
upperback -1.2063 1.02845 4.08771
thorax -6.0432 0.363384 0.590455
lowerneck -25.219 1.53047 7.06066
upperneck 23.0916 1.16862 -6.19696
head 11.8264 0.321335 -3.30655
rclavicle 6.16232e-015 -1.86858e-014
rhumerus -43.5085 -2.78495 -76.1479
rradius 35.6061
rwrist -8.5098
rhand -18.5453 -3.00707
rfingers 7.12502
rthumb 7.74402 -32.8453
lclavicle 6.16232e-015 -1.86858e-014
lhumerus -36.91 -4.33004 84.0563
lradius 47.6991
lwrist 7.83288
lhand -16.2339 -7.78512
lfingers 7.12502
lthumb 9.97449 21.9585
rfemur -27.4525 -9.29318 25.8548
rtibia 68.6482
rfoot -13.2189 -12.8587
rtoes -10.4277
lfemur -11.8567 -1.8771 -17.3965
ltibia 30.7375
lfoot -7.83608 17.0113
ltoes 5.12343
661
root 0.180087 17.9761 39.0173 1.31412 -0.571756 -8.06561
lowerback 8.60415 0.0988923 6.2658
upperback -1.20051 1.04771 4.05855
thorax -6.07616 0.373962 0.594703
lowerneck -25.2893 1.5311 7.03654
upperneck 23.024 1.17192 -6.1975
head 11.8138 0.31902 -3.30092
rclavicle 7.95139e-016 -3.06128e-014
rhumerus -43.5988 -2.70641 -76.2093
rradius 35.5461
rwrist -8.44389
rhand -18.4355 -3.01337
rfingers 7.12502
rthumb 7.85001 -32.8476
lclavicle 7.95139e-016 -3.06128e-014
lhumerus -37.0163 -4.39998 84.0281
lradius 47.5723
lwrist 7.79013
lhand -16.0685 -7.73037
lfingers 7.12502
lthumb 10.134 22.0056
rfemur -27.2872 -9.05024 25.8403
rtibia 67.5486
rfoot -13.4648 -12.7025
rtoes -10.4168
lfemur -11.8105 -1.88986 -17.4883
ltibia 30.6529
lfoot -7.85749 17.0513
ltoes 5.12805
662
root 0.168033 17.977 39.029 1.42309 -0.574203 -7.95918
lowerback 8.61603 0.110247 6.21304
upperback -1.2152 1.05795 4.03444
thorax -6.09831 0.379692 0.597416
lowerneck -25.3362 1.53579 7.02809
upperneck 22.9386 1.18035 -6.21354
head 11.7905 0.318448 -3.30222
rclavicle -5.04416e-015 -6.67916e-014
rhumerus -43.6946 -2.62196 -76.2712
rradius 35.5004
rwrist -8.39643
rhand -18.3513 -2.97654
rfingers 7.12502
rthumb 7.93127 -32.8078
lclavicle -5.04416e-015 -6.67916e-014
lhumerus -37.1422 -4.49031 84.0122
lradius 47.4302
lwrist 7.72208
lhand -15.8793 -7.68014
lfingers 7.12502
lthumb 10.3166 22.0468
rfemur -27.1724 -8.82094 25.8532
rtibia 66.4215
rfoot -13.6973 -12.5017
rtoes -10.3802
lfemur -11.8429 -1.89652 -17.556
ltibia 30.58
lfoot -7.87387 17.0668
ltoes 5.09153
663
root 0.155134 17.9776 39.0404 1.55239 -0.542468 -7.85595
lowerback 8.63029 0.226388 6.39353
upperback -1.25087 1.22806 3.90134
thorax -6.13215 0.453224 0.333988
lowerneck -25.4776 1.3585 6.7926
upperneck 22.9121 0.962656 -6.03981
head 11.787 0.221112 -3.23441
rclavicle -6.95746e-015 3.61788e-014
rhumerus -43.9203 -2.96431 -76.2218
rradius 35.5061
rwrist -8.35352
rhand -18.2997 -2.92146
rfingers 7.12502
rthumb 7.98106 -32.7508
lclavicle -6.95746e-015 3.61788e-014
lhumerus -37.196 -5.04464 84.1045
lradius 47.2276
lwrist 7.66911
lhand -15.697 -7.6556
lfingers 7.12502
lthumb 10.4924 22.0625
rfemur -27.0584 -8.61913 25.871
rtibia 65.2628
rfoot -13.9388 -12.2568
rtoes -10.348
lfemur -11.9144 -1.92408 -17.6181
ltibia 30.5256
lfoot -7.87989 17.0816
ltoes 5.01472
664
root 0.141443 17.9784 39.0527 1.71634 -0.474364 -7.77851
lowerback 8.58893 0.302686 6.53295
upperback -1.29148 1.33793 3.8071
thorax -6.14224 0.499714 0.142921
lowerneck -25.5809 1.22788 6.61739
upperneck 22.867 0.804875 -5.91901
head 11.7754 0.149294 -3.18586
rclavicle -1.74185e-014 -3.26007e-014
rhumerus -44.1142 -3.20962 -76.1891
rradius 35.5192
rwrist -8.3244
rhand -18.2553 -2.86873
rfingers 7.12502
rthumb 8.02396 -32.6964
lclavicle -1.74185e-014 -3.26007e-014
lhumerus -37.2893 -5.49787 84.1873
lradius 47.0167
lwrist 7.6182
lhand -15.5271 -7.6576
lfingers 7.12502
lthumb 10.6564 22.0522
rfemur -26.9518 -8.44485 25.9193
rtibia 64.0638
rfoot -14.1784 -11.9672
rtoes -10.3707
lfemur -12.0436 -1.99059 -17.6513
ltibia 30.5083
lfoot -7.88747 17.115
ltoes 4.87631
665
root 0.127559 17.9802 39.0666 1.96393 -0.377341 -7.75997
lowerback 8.43684 0.367155 6.71744
upperback -1.34944 1.42844 3.73689
thorax -6.10753 0.536408 -0.0440456
lowerneck -25.6689 1.11667 6.47703
upperneck 22.8115 0.671703 -5.83263
head 11.7595 0.0871213 -3.15166
rclavicle 1.72197e-014 2.26615e-014
rhumerus -44.299 -3.43962 -76.1554
rradius 35.5411
rwrist -8.33603
rhand -18.2369 -2.82128
rfingers 7.12502
rthumb 8.04167 -32.6483
lclavicle 1.72197e-014 2.26615e-014
lhumerus -37.4015 -5.93594 84.2797
lradius 46.7867
lwrist 7.55571
lhand -15.3927 -7.68646
lfingers 7.12502
lthumb 10.786 22.0166
rfemur -26.9026 -8.28382 26.0441
rtibia 62.8242
rfoot -14.4062 -11.6449
rtoes -10.492
lfemur -12.2868 -2.09067 -17.6168
ltibia 30.5339
lfoot -7.89528 17.164
ltoes 4.73129
666
root 0.114185 17.9817 39.0806 2.27358 -0.26168 -7.78345
lowerback 8.21109 0.37599 6.84705
upperback -1.42062 1.43584 3.72842
thorax -6.05132 0.535801 -0.123486
lowerneck -25.7144 1.08769 6.43452
upperneck 22.743 0.642715 -5.8321
head 11.7393 0.0691851 -3.14791
rclavicle 8.69683e-016 1.19271e-014
rhumerus -44.4273 -3.49997 -76.153
rradius 35.5537
rwrist -8.36
rhand -18.2152 -2.79537
rfingers 7.12502
rthumb 8.06264 -32.6216
lclavicle 8.69683e-016 1.19271e-014
lhumerus -37.5633 -6.16628 84.3385
lradius 46.5467
lwrist 7.44982
lhand -15.2513 -7.71774
lfingers 7.12502
lthumb 10.9224 21.9782
rfemur -26.8935 -8.13465 26.2229
rtibia 61.5492
rfoot -14.6051 -11.2937
rtoes -10.8173
lfemur -12.6258 -2.18557 -17.5339
ltibia 30.6097
lfoot -7.90031 17.2031
ltoes 4.55195
667
root 0.100666 17.9819 39.0943 2.58516 -0.126437 -7.82017
lowerback 7.96941 0.303983 6.83781
upperback -1.48102 1.32319 3.79989
thorax -5.9854 0.483056 -0.0263569
lowerneck -25.7087 1.17627 6.53254
upperneck 22.6351 0.760704 -5.95483
head 11.7066 0.113274 -3.18776
rclavicle 1.9456e-014 -2.70347e-014
rhumerus -44.4587 -3.31783 -76.1988
rradius 35.5466
rwrist -8.39482
rhand -18.1854 -2.7819
rfingers 7.12502
rthumb 8.09144 -32.607
lclavicle 1.9456e-014 -2.70347e-014
lhumerus -37.7707 -6.10275 84.3476
lradius 46.3034
lwrist 7.32918
lhand -15.1283 -7.75187
lfingers 7.12502
lthumb 11.041 21.9377
rfemur -26.8593 -7.99911 26.4168
rtibia 60.2493
rfoot -14.7761 -10.9259
rtoes -11.2809
lfemur -12.993 -2.2581 -17.4338
ltibia 30.7262
lfoot -7.91928 17.2111
ltoes 4.39375
